<svg xmlns="http://www.w3.org/2000/svg" viewBox="0 9.90999984741211 151.22000122070312 48.779998779296875" data-asc="0.8984375"><g fill="#000000"><g fill="#000000" transform="translate(0, 0)"><path d="M25.66 15.77Q24.88 14.33 24.10 13.39Q23.32 12.45 22.53 11.90Q21.75 11.35 20.95 11.13Q20.14 10.91 19.31 10.91Q18.14 10.91 17.02 11.32Q15.89 11.72 15.01 12.52Q14.14 13.33 13.60 14.53Q13.06 15.72 13.06 17.29Q13.06 18.60 13.75 19.95Q14.43 21.29 15.44 22.69Q16.46 24.10 17.65 25.56Q18.85 27.03 19.86 28.59Q20.87 30.15 21.56 31.82Q22.24 33.50 22.24 35.28Q22.24 37.55 21.13 39.42Q20.02 41.28 18.18 42.60Q16.33 43.92 13.94 44.64Q11.55 45.36 8.98 45.36Q7.03 45.36 5.38 44.92Q3.74 44.48 2.54 43.62Q1.34 42.75 0.67 41.49Q0 40.23 0 38.57Q0 37.40 0.29 36.25Q0.59 35.11 1.25 33.98Q1.90 32.86 2.98 31.74Q4.05 30.62 5.59 29.52L7.52 31.81Q6.37 32.40 5.32 33.12Q4.27 33.84 3.47 34.74Q2.66 35.64 2.19 36.73Q1.71 37.82 1.71 39.14Q1.71 40.06 2.12 40.94Q2.54 41.82 3.44 42.52Q4.35 43.21 5.76 43.64Q7.18 44.07 9.16 44.07Q10.96 44.07 12.73 43.55Q14.50 43.04 15.89 42.04Q17.29 41.04 18.15 39.53Q19.02 38.01 19.02 35.99Q19.02 34.67 18.37 33.28Q17.72 31.88 16.74 30.44Q15.75 29.00 14.61 27.51Q13.48 26.03 12.49 24.50Q11.50 22.97 10.85 21.42Q10.21 19.87 10.21 18.29Q10.21 15.94 11.13 14.34Q12.06 12.74 13.53 11.76Q14.99 10.77 16.76 10.34Q18.53 9.91 20.21 9.91Q21.78 9.91 22.99 10.27Q24.19 10.62 25.13 11.18Q26.07 11.74 26.78 12.46Q27.49 13.18 28.05 13.92L25.66 15.77ZM36.94 40.77Q36.84 40.99 36.77 41.24Q36.69 41.48 36.69 41.65Q36.69 41.94 36.83 42.04Q36.96 42.14 37.18 42.14Q37.52 42.14 38.01 41.80Q38.50 41.46 39.04 40.80L43.51 35.28L44.12 35.77L38.72 42.43Q38.13 43.16 37.62 43.65Q37.11 44.14 36.66 44.42Q36.21 44.70 35.75 44.82Q35.30 44.95 34.84 44.95Q34.11 44.95 33.62 44.52Q33.13 44.09 33.13 43.43Q33.13 42.70 33.41 41.92Q33.69 41.14 34.23 39.97Q34.42 39.55 34.70 38.88Q34.99 38.21 35.30 37.46Q35.62 36.72 35.94 35.96Q36.25 35.21 36.50 34.58Q36.74 33.96 36.90 33.54Q37.06 33.13 37.06 33.06Q37.06 32.81 36.89 32.81Q36.67 32.81 36.43 33.18Q36.28 33.37 35.84 34.01Q35.40 34.64 34.77 35.52Q34.13 36.40 33.40 37.43Q32.67 38.45 31.93 39.43Q31.20 40.41 30.54 41.21Q29.88 42.02 29.42 42.48Q28.25 43.65 27.34 44.32Q26.44 45.00 25.56 45.00Q25.27 45.00 24.91 44.87Q24.56 44.75 24.26 44.45Q23.95 44.14 23.75 43.59Q23.56 43.04 23.56 42.19Q23.56 40.92 24.13 39.38Q24.71 37.84 25.71 36.24Q26.71 34.64 28.08 33.11Q29.44 31.57 31.04 30.33Q32.64 29.10 34.40 28.27Q36.16 27.44 37.96 27.27L37.96 27.71Q36.47 28.15 35.11 29.06Q33.74 29.98 32.54 31.18Q31.35 32.37 30.37 33.73Q29.39 35.08 28.69 36.40Q27.98 37.72 27.60 38.90Q27.22 40.09 27.22 40.89Q27.22 41.33 27.36 41.63Q27.49 41.92 27.73 41.92Q28.00 41.92 28.53 41.48Q29.05 41.04 29.74 40.30Q30.42 39.55 31.23 38.59Q32.03 37.62 32.86 36.57Q33.69 35.52 34.51 34.45Q35.33 33.37 36.04 32.42Q37.11 30.96 37.82 30.00Q38.53 29.05 39.04 28.48Q39.55 27.91 39.97 27.69Q40.38 27.47 40.87 27.47Q41.38 27.47 41.58 27.73Q41.77 28.00 41.77 28.39Q41.77 28.71 41.69 29.05Q41.60 29.39 41.48 29.66Q41.38 29.88 41.05 30.70Q40.72 31.52 40.26 32.65Q39.79 33.79 39.27 35.08Q38.75 36.38 38.27 37.54Q37.79 38.70 37.43 39.59Q37.06 40.48 36.94 40.77ZM61.04 36.01Q59.86 37.48 58.79 38.70Q57.71 39.92 56.65 40.98Q55.59 42.04 54.52 42.99Q53.44 43.95 52.27 44.92L49.93 50.56Q49.15 52.44 48.33 53.96Q47.51 55.47 46.58 56.52Q45.65 57.57 44.58 58.13Q43.51 58.69 42.21 58.69Q41.36 58.69 40.77 58.41Q40.19 58.13 39.82 57.69Q39.45 57.25 39.29 56.71Q39.14 56.18 39.14 55.69Q39.14 54.08 40.04 52.72Q40.94 51.37 42.40 50.12Q43.85 48.88 45.64 47.64Q47.44 46.41 49.24 45.02L54.03 33.50Q54.17 33.13 54.17 33.06Q54.17 32.81 54.00 32.81Q53.78 32.81 53.54 33.18Q53.39 33.37 52.95 34.01Q52.51 34.64 51.88 35.52Q51.25 36.40 50.51 37.43Q49.78 38.45 49.05 39.43Q48.32 40.41 47.66 41.21Q47.00 42.02 46.53 42.48Q45.36 43.65 44.46 44.32Q43.55 45.00 42.68 45.00Q42.38 45.00 42.03 44.87Q41.67 44.75 41.37 44.45Q41.06 44.14 40.87 43.59Q40.67 43.04 40.67 42.19Q40.67 40.92 41.25 39.38Q41.82 37.84 42.82 36.24Q43.82 34.64 45.19 33.11Q46.56 31.57 48.16 30.33Q49.76 29.10 51.51 28.27Q53.27 27.44 55.08 27.27L55.08 27.71Q53.59 28.15 52.22 29.06Q50.85 29.98 49.66 31.18Q48.46 32.37 47.49 33.73Q46.51 35.08 45.80 36.40Q45.09 37.72 44.71 38.90Q44.34 40.09 44.34 40.89Q44.34 41.33 44.47 41.63Q44.60 41.92 44.85 41.92Q45.12 41.92 45.64 41.48Q46.17 41.04 46.85 40.30Q47.53 39.55 48.34 38.59Q49.15 37.62 49.98 36.57Q50.81 35.52 51.62 34.45Q52.44 33.37 53.15 32.42Q54.22 30.96 54.94 30.00Q55.66 29.05 56.19 28.48Q56.71 27.91 57.13 27.69Q57.54 27.47 58.03 27.47Q58.54 27.47 58.74 27.73Q58.94 28.00 58.94 28.39Q58.94 28.71 58.85 29.05Q58.76 29.39 58.64 29.66L52.98 43.24Q54.59 41.85 56.43 39.98Q58.28 38.11 60.42 35.52L61.04 36.01M48.63 46.51Q46.68 47.92 45.09 49.06Q43.51 50.20 42.40 51.23Q41.28 52.27 40.69 53.34Q40.09 54.42 40.09 55.71Q40.09 56.05 40.19 56.42Q40.28 56.79 40.49 57.08Q40.70 57.37 41.04 57.56Q41.38 57.74 41.87 57.74Q43.09 57.74 44.10 56.37Q45.12 55.00 46.07 52.71L48.63 46.51ZM63.62 43.95Q64.50 43.95 65.54 43.55Q66.58 43.16 67.88 42.21Q69.19 41.26 70.78 39.64Q72.36 38.01 74.34 35.55L74.95 36.04Q73.27 38.18 71.85 39.69Q70.43 41.19 69.26 42.18Q68.09 43.16 67.15 43.71Q66.21 44.26 65.48 44.53Q64.75 44.80 64.18 44.86Q63.62 44.92 63.23 44.92Q62.65 44.92 61.91 44.75Q61.18 44.58 60.55 44.13Q59.91 43.68 59.48 42.90Q59.06 42.11 59.06 40.87Q59.06 39.04 59.66 37.33Q60.25 35.62 61.23 34.12Q62.21 32.62 63.44 31.37Q64.67 30.13 65.95 29.24Q67.24 28.34 68.43 27.86Q69.63 27.37 70.53 27.37Q71.83 27.37 72.40 28.14Q72.97 28.91 72.97 30.10Q72.97 31.20 72.49 32.23Q72.00 33.25 71.19 34.17Q70.39 35.08 69.32 35.85Q68.26 36.62 67.10 37.17Q65.94 37.72 64.76 38.04Q63.57 38.35 62.55 38.35Q62.23 39.28 62.05 40.11Q61.87 40.94 61.87 41.65Q61.87 42.97 62.38 43.46Q62.89 43.95 63.62 43.95M69.73 28.37Q69.07 28.37 68.14 29.21Q67.21 30.05 66.22 31.40Q65.23 32.74 64.32 34.39Q63.40 36.04 62.79 37.67Q64.53 37.38 65.95 36.49Q67.38 35.60 68.40 34.41Q69.41 33.23 69.96 31.91Q70.51 30.59 70.51 29.49Q70.51 28.83 70.29 28.60Q70.07 28.37 69.73 28.37ZM90.75 45.36Q89.48 45.36 88.40 45.06Q87.33 44.75 86.40 44.25Q85.47 43.75 84.67 43.10Q83.86 42.46 83.15 41.80Q81.71 43.60 80.16 44.45Q78.61 45.29 76.81 45.29Q76.15 45.29 75.48 45.08Q74.80 44.87 74.26 44.45Q73.71 44.02 73.36 43.35Q73.02 42.68 73.02 41.75Q73.02 40.80 73.43 39.92Q73.83 39.04 74.55 38.37Q75.27 37.70 76.26 37.30Q77.25 36.91 78.42 36.91Q79.44 36.91 80.36 37.40Q81.27 37.89 82.18 38.65Q82.91 37.18 83.72 35.27Q84.52 33.35 85.55 30.93L88.72 23.36L85.82 23.36Q84.59 23.36 83.40 23.11Q82.20 22.85 81.27 22.30Q80.35 21.75 79.77 20.92Q79.20 20.09 79.20 18.92Q79.20 17.26 80.30 15.64Q81.40 14.01 83.41 12.74Q85.42 11.47 88.29 10.69Q91.16 9.91 94.70 9.91Q97.36 9.91 99.88 10.86Q102.39 11.82 104.36 13.65Q106.32 15.48 107.51 18.13Q108.69 20.78 108.69 24.17Q108.69 26.54 108.06 29.03Q107.42 31.52 106.27 33.86Q105.13 36.21 103.49 38.31Q101.86 40.41 99.87 41.97Q97.88 43.53 95.57 44.45Q93.26 45.36 90.75 45.36M91.85 23.36L87.11 34.67Q85.64 38.16 84.16 40.41Q84.86 41.06 85.60 41.69Q86.33 42.31 87.13 42.80Q87.94 43.29 88.82 43.58Q89.70 43.87 90.67 43.87Q92.77 43.87 94.67 42.98Q96.56 42.09 98.18 40.55Q99.80 39.01 101.12 36.98Q102.44 34.94 103.36 32.65Q104.27 30.37 104.77 27.95Q105.27 25.54 105.27 23.27Q105.27 20.68 104.63 18.41Q103.98 16.14 102.64 14.45Q101.29 12.77 99.23 11.79Q97.17 10.82 94.31 10.82Q91.50 10.82 89.21 11.46Q86.91 12.11 85.29 13.13Q83.67 14.16 82.79 15.45Q81.91 16.75 81.91 18.07Q81.91 18.75 82.13 19.32Q82.35 19.90 82.90 20.30Q83.45 20.70 84.35 20.94Q85.25 21.17 86.65 21.17L89.62 21.17L93.21 12.62L96.34 12.62L92.75 21.17L100.61 21.17L99.71 23.36L91.85 23.36M76.61 44.07Q77.34 44.07 77.97 43.84Q78.59 43.60 79.16 43.12Q79.74 42.63 80.29 41.89Q80.83 41.16 81.40 40.14Q80.54 39.36 79.72 38.82Q78.91 38.28 78.00 38.28Q77.08 38.28 76.38 38.60Q75.68 38.92 75.20 39.42Q74.71 39.92 74.46 40.52Q74.22 41.11 74.22 41.67Q74.22 42.77 74.85 43.42Q75.49 44.07 76.61 44.07ZM120.17 17.70Q120.90 17.70 121.31 18.23Q121.73 18.75 121.73 19.46Q121.73 19.85 121.59 20.25Q121.46 20.65 121.20 20.97Q120.95 21.29 120.59 21.50Q120.24 21.70 119.78 21.70Q119.07 21.70 118.63 21.15Q118.19 20.61 118.19 19.92Q118.19 19.41 118.37 19.01Q118.55 18.60 118.84 18.31Q119.12 18.02 119.47 17.86Q119.82 17.70 120.17 17.70M114.38 30.93Q114.45 30.76 114.45 30.66Q114.45 30.52 114.37 30.46Q114.28 30.40 114.16 30.40Q113.92 30.40 113.72 30.66L108.89 36.65L108.28 36.16L113.77 29.37Q114.40 28.59 115.10 27.99Q115.80 27.39 116.55 27.39Q117.26 27.39 117.58 27.77Q117.90 28.15 117.90 28.61Q117.90 29.08 117.72 29.66Q117.55 30.25 117.29 30.88L113.18 40.77Q113.09 41.02 113.01 41.25Q112.94 41.48 112.94 41.65Q112.94 41.94 113.07 42.04Q113.21 42.14 113.43 42.14Q113.77 42.14 114.26 41.80Q114.75 41.46 115.28 40.80L119.75 35.28L120.36 35.77L114.97 42.43Q114.38 43.16 113.87 43.65Q113.35 44.14 112.90 44.42Q112.45 44.70 112.00 44.82Q111.55 44.95 111.08 44.95Q110.35 44.95 109.86 44.52Q109.38 44.09 109.38 43.43Q109.38 42.82 109.67 41.99Q109.96 41.16 110.47 39.97L114.38 30.93ZM130.30 40.77Q130.20 40.99 130.13 41.24Q130.05 41.48 130.05 41.65Q130.05 41.94 130.19 42.04Q130.32 42.14 130.54 42.14Q130.88 42.14 131.37 41.80Q131.86 41.46 132.40 40.80L136.87 35.28L137.48 35.77L132.08 42.43Q131.49 43.16 130.98 43.65Q130.47 44.14 130.02 44.42Q129.57 44.70 129.11 44.82Q128.66 44.95 128.20 44.95Q127.47 44.95 126.98 44.52Q126.49 44.09 126.49 43.43Q126.49 42.70 126.77 41.92Q127.05 41.14 127.59 39.97Q127.78 39.55 128.06 38.88Q128.34 38.21 128.66 37.46Q128.98 36.72 129.30 35.96Q129.61 35.21 129.86 34.58Q130.10 33.96 130.26 33.54Q130.42 33.13 130.42 33.06Q130.42 32.81 130.25 32.81Q130.03 32.81 129.79 33.18Q129.64 33.37 129.20 34.01Q128.76 34.64 128.13 35.52Q127.49 36.40 126.76 37.43Q126.03 38.45 125.29 39.43Q124.56 40.41 123.90 41.21Q123.24 42.02 122.78 42.48Q121.61 43.65 120.70 44.32Q119.80 45.00 118.92 45.00Q118.63 45.00 118.27 44.87Q117.92 44.75 117.61 44.45Q117.31 44.14 117.11 43.59Q116.92 43.04 116.92 42.19Q116.92 40.92 117.49 39.38Q118.07 37.84 119.07 36.24Q120.07 34.64 121.44 33.11Q122.80 31.57 124.40 30.33Q126.00 29.10 127.76 28.27Q129.52 27.44 131.32 27.27L131.32 27.71Q129.83 28.15 128.47 29.06Q127.10 29.98 125.90 31.18Q124.71 32.37 123.73 33.73Q122.75 35.08 122.05 36.40Q121.34 37.72 120.96 38.90Q120.58 40.09 120.58 40.89Q120.58 41.33 120.72 41.63Q120.85 41.92 121.09 41.92Q121.36 41.92 121.89 41.48Q122.41 41.04 123.10 40.30Q123.78 39.55 124.58 38.59Q125.39 37.62 126.22 36.57Q127.05 35.52 127.87 34.45Q128.69 33.37 129.39 32.42Q130.47 30.96 131.18 30.00Q131.88 29.05 132.40 28.48Q132.91 27.91 133.33 27.69Q133.74 27.47 134.23 27.47Q134.74 27.47 134.94 27.73Q135.13 28.00 135.13 28.39Q135.13 28.71 135.05 29.05Q134.96 29.39 134.84 29.66Q134.74 29.88 134.41 30.70Q134.08 31.52 133.62 32.65Q133.15 33.79 132.63 35.08Q132.10 36.38 131.63 37.54Q131.15 38.70 130.79 39.59Q130.42 40.48 130.30 40.77ZM140.43 40.77Q140.33 41.02 140.26 41.25Q140.19 41.48 140.19 41.65Q140.19 41.94 140.32 42.04Q140.45 42.14 140.67 42.14Q141.02 42.14 141.50 41.80Q141.99 41.46 142.53 40.80L147.00 35.28L147.61 35.77L142.21 42.43Q141.63 43.16 141.15 43.65Q140.67 44.14 140.25 44.42Q139.82 44.70 139.39 44.82Q138.96 44.95 138.50 44.95Q137.77 44.95 137.28 44.52Q136.79 44.09 136.79 43.43Q136.79 42.82 137.10 41.99Q137.40 41.16 137.89 39.97L142.50 28.96Q142.11 29.57 141.60 30.32Q141.09 31.08 140.37 32.03Q139.65 32.98 138.73 34.17Q137.82 35.35 136.62 36.82L136.01 36.33Q137.70 34.25 138.94 32.60Q140.19 30.96 141.09 29.64Q141.99 28.32 142.63 27.27Q143.26 26.22 143.75 25.29Q144.24 24.37 144.64 23.52Q145.04 22.68 145.51 21.78L148.29 15.16L151.22 15.16L140.43 40.77Z"/></g><g fill="#000000" transform="translate(0, 24.98388671875)"><path d=""/></g></g></svg>